<?xml version="1.0" standalone="no"?><!DOCTYPE svg PUBLIC "-//W3C//DTD SVG 1.1//EN" "http://www.w3.org/Graphics/SVG/1.1/DTD/svg11.dtd"><svg t="1714121051955" class="icon" viewBox="0 0 1024 1024" version="1.1" xmlns="http://www.w3.org/2000/svg" p-id="1479" xmlns:xlink="http://www.w3.org/1999/xlink" width="200" height="200"><path d="M512 64C264.512 64 64 264.512 64 512c0 110.848 40.192 212.288 106.88 290.496l-96.384 96.32a35.84 35.84 0 0 0 50.688 50.688l96.32-96.32A446.272 446.272 0 0 0 512 960c247.488 0 448-200.512 448-448a446.272 446.272 0 0 0-106.88-290.496l96.384-96.32a35.84 35.84 0 1 0-50.688-50.688L802.496 170.88A446.272 446.272 0 0 0 512 64z m241.536 155.776L655.36 317.952a241.152 241.152 0 0 0-337.408 337.408l-98.176 98.176A377.6 377.6 0 0 1 132.928 512 378.944 378.944 0 0 1 512 132.928a377.6 377.6 0 0 1 241.536 86.848zM605.824 367.488L528.32 444.992a69.12 69.12 0 0 0-83.264 83.264L367.36 605.952a172.224 172.224 0 0 1 238.4-238.4z m-26.88 128.256l77.568-77.568a172.224 172.224 0 0 1-238.4 238.4l77.632-77.632a69.12 69.12 0 0 0 83.2-83.2zM368.64 706.112a241.152 241.152 0 0 0 337.408-337.408l98.24-98.24A377.6 377.6 0 0 1 891.072 512 378.944 378.944 0 0 1 512 891.072a377.6 377.6 0 0 1-241.536-86.848l98.112-98.112z" fill="#000000" p-id="1480"></path></svg>