<svg xmlns="http://www.w3.org/2000/svg" version="1.1" xmlns:xlink="http://www.w3.org/1999/xlink" xmlns:svgjs="http://svgjs.dev/svgjs" width="1500" height="1500" viewBox="0 0 1500 1500"><rect width="1500" height="1500" fill="#ffffff"></rect><g transform="matrix(0.6666666666666666,0,0,0.6666666666666666,249.39393939393932,419.8626338451521)"><svg viewBox="0 0 396 262" data-background-color="#191552" preserveAspectRatio="xMidYMid meet" height="992" width="1500" xmlns="http://www.w3.org/2000/svg" xmlns:xlink="http://www.w3.org/1999/xlink"><g id="tight-bounds" transform="matrix(1,0,0,1,0.24000000000003752,-0.20969264228301654)"><svg viewBox="0 0 395.5199999999999 262.4193852845661" height="262.4193852845661" width="395.5199999999999"><g><svg viewBox="0 0 395.52000000000004 262.41938528456615" height="262.4193852845661" width="395.5199999999999"><g transform="matrix(1,0,0,1,0,135.24225524659363)"><svg viewBox="0 0 395.52000000000004 127.17713003797255" height="127.17713003797255" width="395.52000000000004"><g id="textblocktransform"><svg viewBox="0 0 395.52000000000004 127.17713003797255" height="127.17713003797255" width="395.52000000000004" id="textblock"><g><svg viewBox="0 0 395.52000000000004 127.17713003797255" height="127.17713003797255" width="395.52000000000004"><g transform="matrix(1,0,0,1,0,0)"><svg width="395.52000000000004" viewBox="-0.14973999999999954 -18.96698 141.23743000000002 45.41407" height="127.17713003797255" data-palette-color="url(#99cea7c7-ed13-44aa-b162-7c7ec2b4d160)"></svg></g></svg></g></svg></g></svg></g><g transform="matrix(1,0,0,1,160.86677505938042,0)"><svg viewBox="0 0 73.78644988123918 127.17713003797255" height="127.17713003797255" width="73.78644988123918"><g><svg xmlns="http://www.w3.org/2000/svg" xmlns:xlink="http://www.w3.org/1999/xlink" version="1.1" x="0" y="0" viewBox="21.679106830508623 1 56.85827385947761 98" enable-background="new 0 0 100 100" xml:space="preserve" height="127.17713003797255" width="73.78644988123918" class="icon-icon-0" data-fill-palette-color="accent" id="icon-0"></svg></g></svg></g><g></g></svg></g><defs></defs><mask id="0100268d-2f26-47a7-9b25-d617c9a29865"><g id="SvgjsG3822"><svg viewBox="0 0 395.5199999999999 262.4193852845661" height="262.4193852845661" width="395.5199999999999"><g><svg viewBox="0 0 395.52000000000004 262.41938528456615" height="262.4193852845661" width="395.5199999999999"><g transform="matrix(1,0,0,1,0,135.24225524659363)"><svg viewBox="0 0 395.52000000000004 127.17713003797255" height="127.17713003797255" width="395.52000000000004"><g id="SvgjsG3821"><svg viewBox="0 0 395.52000000000004 127.17713003797255" height="127.17713003797255" width="395.52000000000004" id="SvgjsSvg3820"><g><svg viewBox="0 0 395.52000000000004 127.17713003797255" height="127.17713003797255" width="395.52000000000004"><g transform="matrix(1,0,0,1,0,0)"><svg width="395.52000000000004" viewBox="-0.14973999999999954 -18.96698 141.23743000000002 45.41407" height="127.17713003797255" data-palette-color="url(#99cea7c7-ed13-44aa-b162-7c7ec2b4d160)"><path d="M3.914 14.453l-4.064-1.375 10.844-32.045 13.725 4.644c1.408 0.477 2.6 1.207 3.576 2.192 0.976 0.985 1.734 2.114 2.274 3.388 0.54 1.274 0.848 2.599 0.925 3.976 0.068 1.381-0.113 2.706-0.543 3.976v0c-0.498 1.471-1.249 2.776-2.254 3.914-1.002 1.132-2.167 1.994-3.493 2.587-1.327 0.593-2.727 0.84-4.2 0.743v0l3.614 14.904-4.604-1.557-3.418-13.984-8.488-2.872zM13.536-13.983l-4.507 13.318 9.7 3.282c1.118 0.378 2.195 0.398 3.232 0.059 1.037-0.339 1.962-0.941 2.775-1.805 0.807-0.867 1.408-1.885 1.804-3.053v0c0.408-1.206 0.515-2.405 0.32-3.598-0.203-1.188-0.638-2.232-1.305-3.133-0.675-0.897-1.536-1.523-2.584-1.878v0zM28.456 21.963l18.564-31.496 3.582 0.519 8.831 35.461-4.523-0.655-2.549-10.382-14.043-2.033-5.339 9.24zM39.637 10.193l12.263 1.775-3.8-16.332zM80.71 6.094l-6.759-14.329 4.042-0.25 5.199 11.47 3.784-12.027 4.042-0.251-4.938 15.055 6.672 13.573 9.622-29.522 4.661-0.289-12.03 34.641-3.713 0.23-7.684-15.515-5.77 16.349-3.713 0.23-16.165-32.893 4.611-0.286 13.244 28.105zM127.749 18.488v0c-2.145 0.596-4.273 0.682-6.383 0.258-2.109-0.417-4.072-1.221-5.891-2.411-1.814-1.198-3.376-2.677-4.688-4.437-1.312-1.76-2.262-3.696-2.849-5.809v0c-0.612-2.203-0.81-4.397-0.594-6.582 0.215-2.191 0.791-4.24 1.728-6.147 0.937-1.907 2.209-3.554 3.817-4.941 1.614-1.389 3.506-2.385 5.677-2.989v0c3.154-0.876 5.938-0.94 8.353-0.193 2.415 0.748 4.436 2.033 6.064 3.858v0l-2.56 3.077c-1.471-1.633-3.162-2.678-5.074-3.136-1.906-0.46-3.855-0.413-5.846 0.14v0c-1.651 0.459-3.049 1.228-4.196 2.307-1.154 1.075-2.046 2.35-2.674 3.825-0.626 1.482-0.981 3.057-1.063 4.727-0.083 1.67 0.105 3.33 0.564 4.981v0c0.485 1.747 1.229 3.315 2.23 4.705 0.994 1.385 2.175 2.523 3.544 3.416 1.367 0.886 2.832 1.476 4.394 1.768 1.568 0.291 3.146 0.216 4.732-0.224v0c1.869-0.519 3.513-1.488 4.932-2.907 1.419-1.418 2.609-3.312 3.569-5.682v0l1.186 4.268c-1.973 4.305-4.964 7.015-8.972 8.128zM137.6 15.502l-3.649-13.132-7.024 1.951-0.867-3.122 10.512-2.92 4.516 16.255z" opacity="1" transform="matrix(1,0,0,1,0,0)" fill="white" class="wordmark-text-0" id="SvgjsPath3819"></path></svg></g></svg></g></svg></g></svg></g><g transform="matrix(1,0,0,1,160.86677505938042,0)"><svg viewBox="0 0 73.78644988123918 127.17713003797255" height="127.17713003797255" width="73.78644988123918"><g><svg xmlns="http://www.w3.org/2000/svg" xmlns:xlink="http://www.w3.org/1999/xlink" version="1.1" x="0" y="0" viewBox="21.679106830508623 1 56.85827385947761 98" enable-background="new 0 0 100 100" xml:space="preserve" height="127.17713003797255" width="73.78644988123918" class="icon-icon-0" data-fill-palette-color="accent" id="SvgjsSvg3818"><g fill="black"><path fill-rule="evenodd" clip-rule="evenodd" d="M30.545 28.822c-1.165 7.217 0.33 14.85 6.5 19.041C30.758 19.81 45.756 8.664 59.646 1c-16.18 23.046 16.896 23.644 18.777 50.13C80.028 73.71 64.507 91.317 46.639 99c0.206-22.825-22.55-25.933-24.838-44.603C20.905 47.094 25.062 33.766 30.545 28.822z" fill="black"></path></g></svg></g></svg></g><g></g></svg></g><defs><mask></mask></defs></svg><rect width="395.5199999999999" height="262.4193852845661" fill="black" stroke="none" visibility="hidden"></rect></g></mask><linearGradient x1="0" x2="1" y1="0.578" y2="0.595" id="99cea7c7-ed13-44aa-b162-7c7ec2b4d160"><stop stop-color="#6ee2f5" offset="0"></stop><stop stop-color="#6454f0" offset="1"></stop></linearGradient><rect width="395.5199999999999" height="262.4193852845661" fill="#000000" mask="url(#0100268d-2f26-47a7-9b25-d617c9a29865)" data-fill-palette-color="primary"></rect><mask id="91aa38a6-4100-4b8c-9910-387bf8a8e07b"><g id="SvgjsG3831"><svg viewBox="0 0 395.5199999999999 262.4193852845661" height="262.4193852845661" width="395.5199999999999"><g><svg viewBox="0 0 395.52000000000004 262.41938528456615" height="262.4193852845661" width="395.5199999999999"><g transform="matrix(1,0,0,1,0,135.24225524659363)"><svg viewBox="0 0 395.52000000000004 127.17713003797255" height="127.17713003797255" width="395.52000000000004"><g id="SvgjsG3830"><svg viewBox="0 0 395.52000000000004 127.17713003797255" height="127.17713003797255" width="395.52000000000004" id="SvgjsSvg3829"><g><svg viewBox="0 0 395.52000000000004 127.17713003797255" height="127.17713003797255" width="395.52000000000004"><g transform="matrix(1,0,0,1,0,0)"><svg width="395.52000000000004" viewBox="-0.14973999999999954 -18.96698 141.23743000000002 45.41407" height="127.17713003797255" data-palette-color="url(#99cea7c7-ed13-44aa-b162-7c7ec2b4d160)"></svg></g></svg></g></svg></g></svg></g><g transform="matrix(1,0,0,1,160.86677505938042,0)"><svg viewBox="0 0 73.78644988123918 127.17713003797255" height="127.17713003797255" width="73.78644988123918"><g><svg xmlns="http://www.w3.org/2000/svg" xmlns:xlink="http://www.w3.org/1999/xlink" version="1.1" x="0" y="0" viewBox="21.679106830508623 1 56.85827385947761 98" enable-background="new 0 0 100 100" xml:space="preserve" height="127.17713003797255" width="73.78644988123918" class="icon-icon-0" data-fill-palette-color="accent" id="SvgjsSvg3828"><g fill="white"><path fill-rule="evenodd" clip-rule="evenodd" d="M30.545 28.822c-1.165 7.217 0.33 14.85 6.5 19.041C30.758 19.81 45.756 8.664 59.646 1c-16.18 23.046 16.896 23.644 18.777 50.13C80.028 73.71 64.507 91.317 46.639 99c0.206-22.825-22.55-25.933-24.838-44.603C20.905 47.094 25.062 33.766 30.545 28.822z" fill="white"></path></g></svg></g></svg></g><g></g></svg></g><defs><mask></mask></defs><mask><g id="SvgjsG3827"><svg viewBox="0 0 395.5199999999999 262.4193852845661" height="262.4193852845661" width="395.5199999999999"><g><svg viewBox="0 0 395.52000000000004 262.41938528456615" height="262.4193852845661" width="395.5199999999999"><g transform="matrix(1,0,0,1,0,135.24225524659363)"><svg viewBox="0 0 395.52000000000004 127.17713003797255" height="127.17713003797255" width="395.52000000000004"><g id="SvgjsG3826"><svg viewBox="0 0 395.52000000000004 127.17713003797255" height="127.17713003797255" width="395.52000000000004" id="SvgjsSvg3825"><g><svg viewBox="0 0 395.52000000000004 127.17713003797255" height="127.17713003797255" width="395.52000000000004"><g transform="matrix(1,0,0,1,0,0)"><svg width="395.52000000000004" viewBox="-0.14973999999999954 -18.96698 141.23743000000002 45.41407" height="127.17713003797255" data-palette-color="url(#99cea7c7-ed13-44aa-b162-7c7ec2b4d160)"><path d="M3.914 14.453l-4.064-1.375 10.844-32.045 13.725 4.644c1.408 0.477 2.6 1.207 3.576 2.192 0.976 0.985 1.734 2.114 2.274 3.388 0.54 1.274 0.848 2.599 0.925 3.976 0.068 1.381-0.113 2.706-0.543 3.976v0c-0.498 1.471-1.249 2.776-2.254 3.914-1.002 1.132-2.167 1.994-3.493 2.587-1.327 0.593-2.727 0.84-4.2 0.743v0l3.614 14.904-4.604-1.557-3.418-13.984-8.488-2.872zM13.536-13.983l-4.507 13.318 9.7 3.282c1.118 0.378 2.195 0.398 3.232 0.059 1.037-0.339 1.962-0.941 2.775-1.805 0.807-0.867 1.408-1.885 1.804-3.053v0c0.408-1.206 0.515-2.405 0.32-3.598-0.203-1.188-0.638-2.232-1.305-3.133-0.675-0.897-1.536-1.523-2.584-1.878v0zM28.456 21.963l18.564-31.496 3.582 0.519 8.831 35.461-4.523-0.655-2.549-10.382-14.043-2.033-5.339 9.24zM39.637 10.193l12.263 1.775-3.8-16.332zM80.71 6.094l-6.759-14.329 4.042-0.25 5.199 11.47 3.784-12.027 4.042-0.251-4.938 15.055 6.672 13.573 9.622-29.522 4.661-0.289-12.03 34.641-3.713 0.23-7.684-15.515-5.77 16.349-3.713 0.23-16.165-32.893 4.611-0.286 13.244 28.105zM127.749 18.488v0c-2.145 0.596-4.273 0.682-6.383 0.258-2.109-0.417-4.072-1.221-5.891-2.411-1.814-1.198-3.376-2.677-4.688-4.437-1.312-1.76-2.262-3.696-2.849-5.809v0c-0.612-2.203-0.81-4.397-0.594-6.582 0.215-2.191 0.791-4.24 1.728-6.147 0.937-1.907 2.209-3.554 3.817-4.941 1.614-1.389 3.506-2.385 5.677-2.989v0c3.154-0.876 5.938-0.94 8.353-0.193 2.415 0.748 4.436 2.033 6.064 3.858v0l-2.56 3.077c-1.471-1.633-3.162-2.678-5.074-3.136-1.906-0.46-3.855-0.413-5.846 0.14v0c-1.651 0.459-3.049 1.228-4.196 2.307-1.154 1.075-2.046 2.35-2.674 3.825-0.626 1.482-0.981 3.057-1.063 4.727-0.083 1.67 0.105 3.33 0.564 4.981v0c0.485 1.747 1.229 3.315 2.23 4.705 0.994 1.385 2.175 2.523 3.544 3.416 1.367 0.886 2.832 1.476 4.394 1.768 1.568 0.291 3.146 0.216 4.732-0.224v0c1.869-0.519 3.513-1.488 4.932-2.907 1.419-1.418 2.609-3.312 3.569-5.682v0l1.186 4.268c-1.973 4.305-4.964 7.015-8.972 8.128zM137.6 15.502l-3.649-13.132-7.024 1.951-0.867-3.122 10.512-2.92 4.516 16.255z" opacity="1" transform="matrix(1,0,0,1,0,0)" fill="black" class="wordmark-text-0" id="SvgjsPath3824"></path></svg></g></svg></g></svg></g></svg></g><g transform="matrix(1,0,0,1,160.86677505938042,0)"><svg viewBox="0 0 73.78644988123918 127.17713003797255" height="127.17713003797255" width="73.78644988123918"><g><svg xmlns="http://www.w3.org/2000/svg" xmlns:xlink="http://www.w3.org/1999/xlink" version="1.1" x="0" y="0" viewBox="21.679106830508623 1 56.85827385947761 98" enable-background="new 0 0 100 100" xml:space="preserve" height="127.17713003797255" width="73.78644988123918" class="icon-icon-0" data-fill-palette-color="accent" id="SvgjsSvg3823"><g fill="black"><path fill-rule="evenodd" clip-rule="evenodd" d="M30.545 28.822c-1.165 7.217 0.33 14.85 6.5 19.041C30.758 19.81 45.756 8.664 59.646 1c-16.18 23.046 16.896 23.644 18.777 50.13C80.028 73.71 64.507 91.317 46.639 99c0.206-22.825-22.55-25.933-24.838-44.603C20.905 47.094 25.062 33.766 30.545 28.822z" fill="black"></path></g></svg></g></svg></g><g></g></svg></g><defs><mask></mask></defs></svg><rect width="395.5199999999999" height="262.4193852845661" fill="black" stroke="none" visibility="hidden"></rect></g></mask></svg><rect width="395.5199999999999" height="262.4193852845661" fill="black" stroke="none" visibility="hidden"></rect></g></mask><linearGradient x1="0" x2="1" y1="0.578" y2="0.595" id="e1629b33-056d-4232-bdff-a45de2216673"><stop stop-color="#6ee2f5" offset="0"></stop><stop stop-color="#6454f0" offset="1"></stop></linearGradient><rect width="395.5199999999999" height="262.4193852845661" fill="#000000" mask="url(#91aa38a6-4100-4b8c-9910-387bf8a8e07b)" data-fill-palette-color="accent"></rect></svg><rect width="395.5199999999999" height="262.4193852845661" fill="none" stroke="none" visibility="hidden"></rect></g></svg></g></svg>